<?xml version="1.0" encoding="utf-8"?>
<!-- Generator: Adobe Illustrator 18.0.0, SVG Export Plug-In . SVG Version: 6.00 Build 0)  -->
<!DOCTYPE svg PUBLIC "-//W3C//DTD SVG 1.1//EN" "http://www.w3.org/Graphics/SVG/1.1/DTD/svg11.dtd">
<svg version="1.1" id="图层_1" xmlns="http://www.w3.org/2000/svg" xmlns:xlink="http://www.w3.org/1999/xlink" x="0px" y="0px"
	 viewBox="0 0 232.2 38.7" enable-background="new 0 0 232.2 38.7" xml:space="preserve">
<path fill="#C5171E" d="M134,26.8l11.9,11.9h5.2l-14.5-14.5L134,26.8z M195.3,0v16.6h3.7V5.5h12.9v12.9h-3.7L191.6,35h-33.2V9.2
	h-3.7l-11.1,0l-11.1,11.1L121.6,9.2h-5.2l13.7,13.7L117.9,35H95.8l0-33.2l-3.7,0l0,36.8l27.3,0l13.2-13.2l2.6-2.6l10-10h9.5V35v3.7
	h38.4l16.6-16.6h2.2V35h-9.2v3.7h9.2h3.7V5.5h12.9v11.1h3.7V1.8H199V0H195.3z"/>
<polygon fill="#C5171E" points="219.3,23.6 232.2,36.5 232.2,31.3 219.3,18.4 "/>
<path fill="#C5171E" d="M165.8,18.4h9.2v9.2h-9.2V18.4z M165.8,5.5h9.2v9.2h-9.2V5.5z M178.7,5.5h9.2v22.1h-9.2v-9.2h5.5v-3.7h-5.5
	V5.5z M175,0v1.8h-12.9v29.5h29.5V1.8h-12.9V0H175z"/>
<rect x="154.8" y="0" fill="#C5171E" width="3.7" height="5.5"/>
<polygon fill="#C5171E" points="140,0 140,1.8 125.3,1.8 125.3,0 121.6,0 121.6,1.8 114.2,1.8 114.2,5.5 121.6,5.5 121.6,7 
	125.3,10.7 125.3,5.5 140,5.5 140,10.7 143.7,7 143.7,5.5 151.1,5.5 151.1,1.8 143.7,1.8 143.7,0 "/>
<path fill="#C5171E" d="M7.4,1.8v36.8h3.7V5.5h18.4V35H14.7v3.7h14.7h3.7V1.8H7.4z M66.3,5.5h18.4v12.9h-3.7h-3.8h-11V5.5z
	 M62.6,1.8v3.7V35H40.5V22.1H59v-3.7H40.5V5.5H59V1.8H36.9V35v3.7h25.8h3.7V22.1h11h3.8h3.7v16.6h3.7V1.8H62.6z"/>
<rect y="1.8" fill="#C5171E" width="3.7" height="36.8"/>
</svg>
